<?xml version="1.0" encoding="utf-8"?>
<!-- Generator: Adobe Illustrator 16.0.0, SVG Export Plug-In . SVG Version: 6.00 Build 0)  -->
<!DOCTYPE svg PUBLIC "-//W3C//DTD SVG 1.1//EN" "http://www.w3.org/Graphics/SVG/1.1/DTD/svg11.dtd">
<svg version="1.1" id="Layer_1" xmlns="http://www.w3.org/2000/svg" xmlns:xlink="http://www.w3.org/1999/xlink" x="0px" y="0px"
	 width="189.569px" height="194.867px" viewBox="156 156 189.569 194.867" enable-background="new 156 156 189.569 194.867"
	 xml:space="preserve">
<g>
	<polygon fill="#E8E8E8" points="318.793,315.198 250.785,349.276 250.785,157.591 318.793,192.062 	"/>
</g>
<g>
	<polygon fill="#FFFFFF" points="182.776,315.198 250.785,349.276 250.785,157.591 182.776,192.062 	"/>
</g>
<g>
	<path d="M250.785,350.867l-69.432-34.603V190.603L250.785,156l0.635,0.316l68.797,34.286v125.662L250.785,350.867z M184.2,314.501
		l66.584,33.185l66.584-33.185V192.366l-66.584-33.185L184.2,192.366V314.501z"/>
</g>
<g>
	<polygon fill="#FFFFFF" points="182.776,310.756 158.028,310.756 165.885,288.915 158.028,267.153 182.776,267.153 	"/>
	<path d="M184.2,312.18h-28.198l8.369-23.264L156,265.729h28.2V312.18z M160.054,309.332h21.299v-40.756h-21.296l7.342,20.338
		L160.054,309.332z"/>
</g>
<g>
	<polygon fill="#FFFFFF" points="318.793,267.153 343.541,267.153 335.686,288.994 343.541,310.756 318.793,310.756 	"/>
	<path d="M345.57,312.18h-28.201v-46.451h28.197l-8.367,23.266L345.57,312.18z M320.217,309.332h21.297l-7.342-20.337l7.344-20.419
		h-21.299V309.332z"/>
</g>
<g>
	<rect x="175.018" y="261.849" width="152.811" height="43.604"/>
	<path fill="#FFFFFF" d="M329.793,307.418H173.054v-47.533h156.739V307.418z M176.982,303.489h148.881v-39.676H176.982V303.489z"/>
</g>
<g>
	<path d="M232.847,198.74v21.158h-4.382l-2.257-5.396l-2.093,5.396h-4.284V198.74h4.284v10.333l2.093-4.938l2.257,4.938V198.74
		H232.847z"/>
	<path d="M244.62,198.249h4.415v4.414h-0.294h-4.121h-2.191H240.5v2.191v2.224h1.929h2.191v0.295v3.531v0.59h-2.191H240.5v1.896
		v2.125h1.929h2.191h4.121h0.294v4.416h-4.415h-2.191H240.5h-4.415v-4.416v-2.125v-1.896v-4.416v-2.224v-2.191v-4.414h4.415h1.929
		H244.62z"/>
	<path d="M261.037,198.838c1.984,0.567,3.357,1.843,4.121,3.825c0,0.284,0.049,0.611,0.146,0.981c0.1,0.371,0.148,0.774,0.148,1.21
		v2.224v4.416v1.896v2.125v4.416h-4.416v-0.295v-4.121v-2.125v-1.896h-2.191h-2.125v1.896v2.125v4.121v0.295H252.6v-4.416v-2.125
		v-1.896v-4.416v-2.224c0-0.436,0.005-0.839,0.016-1.21c0.011-0.37,0.071-0.697,0.181-0.981c0.305-0.98,0.816-1.792,1.537-2.435
		c0.719-0.645,1.515-1.107,2.387-1.391c0.393-0.152,0.785-0.288,1.178-0.409c0.393-0.119,0.707-0.18,0.947-0.18
		c0.436,0,0.852,0.061,1.244,0.18C260.48,198.55,260.797,198.686,261.037,198.838z M260.48,203.334
		c-0.371-0.446-0.914-0.671-1.635-0.671c-0.262,0-0.523,0.061-0.785,0.181s-0.49,0.284-0.686,0.49
		c-0.197,0.208-0.355,0.441-0.475,0.704c-0.121,0.261-0.18,0.533-0.18,0.816v2.224h2.125h2.191v-2.224
		C261.037,204.289,260.852,203.782,260.48,203.334z"/>
	<path d="M281.902,204.854c0,0.393-0.049,0.753-0.148,1.079c-0.098,0.328-0.146,0.71-0.146,1.145
		c-0.152,0.371-0.344,0.72-0.572,1.047s-0.486,0.709-0.77,1.146c0.283,0.239,0.541,0.561,0.77,0.964
		c0.229,0.404,0.42,0.823,0.572,1.26c0,0.239,0.049,0.545,0.146,0.916c0.1,0.369,0.148,0.698,0.148,0.98v2.125v4.416h-4.416v-0.295
		v-4.121v-2.125c0-0.566-0.189-1.025-0.572-1.374c-0.381-0.349-0.932-0.522-1.65-0.522h-1.896v1.896v2.125v4.121v0.295h-4.318
		v-4.416v-2.125v-1.896v-4.416v-2.224v-2.191v-4.414h4.318h1.896c0.436,0,0.854,0.061,1.258,0.18
		c0.404,0.121,0.725,0.257,0.965,0.409c1.941,0.567,3.314,1.843,4.121,3.825c0,0.284,0.049,0.611,0.146,0.981
		C281.854,204.016,281.902,204.419,281.902,204.854z M276.914,206.375c0.383-0.468,0.572-0.975,0.572-1.521
		c0-0.565-0.189-1.072-0.572-1.521c-0.381-0.446-0.932-0.671-1.65-0.671h-1.896v2.191v2.224h1.896
		C275.982,207.078,276.533,206.845,276.914,206.375z"/>
	<path d="M228.269,233.465h4.317l-1.047,3.075l-0.588,1.341l-1.929,4.415v0.457l-0.753,1.733v1.637v0.587v1.897v2.126v4.12v0.295
		h-2.191h-2.224v-0.295v-4.12v-2.126v-1.897v-0.587v-1.637l-0.556-1.733l-0.294-0.457l-1.635-4.415l-0.588-1.341l-1.046-3.075h4.121
		l0.294,0.296l1.635,4.12l0.295,1.047l0.458-1.047l1.733-4.12V233.465z"/>
	<path d="M244.718,234.055c0.959,0.283,1.776,0.747,2.453,1.39c0.676,0.644,1.232,1.455,1.668,2.437c0,0.284,0.043,0.61,0.131,0.981
		c0.086,0.37,0.13,0.773,0.13,1.21v2.224v4.414v1.897c0,0.393-0.044,0.785-0.13,1.178c-0.088,0.392-0.131,0.708-0.131,0.948
		c-0.436,0.959-0.992,1.787-1.668,2.485c-0.676,0.697-1.494,1.242-2.453,1.635c-0.306,0-0.644,0.049-1.014,0.146
		c-0.371,0.1-0.774,0.148-1.21,0.148c-0.284,0-0.6-0.049-0.948-0.148c-0.349-0.098-0.676-0.146-0.981-0.146
		c-0.959-0.393-1.81-0.938-2.551-1.635c-0.741-0.698-1.265-1.526-1.569-2.485c-0.131-0.24-0.208-0.557-0.229-0.948
		c-0.022-0.393-0.033-0.785-0.033-1.178v-1.897v-4.414v-2.224c0-0.437,0.011-0.84,0.033-1.21c0.022-0.371,0.099-0.697,0.229-0.981
		c0.305-0.981,0.828-1.793,1.569-2.437c0.741-0.643,1.591-1.106,2.551-1.39c0.305-0.153,0.632-0.289,0.981-0.409
		c0.348-0.12,0.665-0.181,0.948-0.181c0.437,0,0.839,0.061,1.21,0.181C244.075,233.766,244.413,233.901,244.718,234.055z
		 M241.105,250.177c0.359,0.371,0.822,0.557,1.389,0.557c0.676,0,1.215-0.186,1.619-0.557c0.403-0.37,0.605-0.894,0.605-1.569
		v-1.897v-0.587v-3.533v-0.294v-2.224c0-0.567-0.202-1.074-0.605-1.521c-0.404-0.447-0.943-0.671-1.619-0.671
		c-0.567,0-1.03,0.224-1.389,0.671c-0.36,0.446-0.54,0.953-0.54,1.521v2.224v0.294v3.533v0.587v1.897
		C240.565,249.283,240.745,249.807,241.105,250.177z"/>
	<path d="M261.037,233.465h4.416v4.416v2.191v2.224v4.414v1.897c0,0.393-0.049,0.785-0.148,1.178
		c-0.098,0.392-0.146,0.708-0.146,0.948c-0.438,0.959-0.986,1.787-1.652,2.485c-0.664,0.697-1.488,1.242-2.469,1.635
		c-0.305,0-0.639,0.049-0.996,0.146c-0.361,0.1-0.76,0.148-1.195,0.148c-0.305,0-0.627-0.049-0.965-0.148
		c-0.338-0.098-0.658-0.146-0.965-0.146c-0.981-0.393-1.842-0.938-2.583-1.635c-0.742-0.698-1.254-1.526-1.537-2.485
		c-0.153-0.24-0.24-0.557-0.262-0.948c-0.022-0.393-0.033-0.785-0.033-1.178v-1.897v-4.414v-2.224v-2.191v-4.416h4.415v0.59v3.826
		v2.191v2.224v0.294v3.533v0.587v1.897c0,0.676,0.186,1.199,0.557,1.569c0.371,0.371,0.828,0.557,1.373,0.557
		c0.676,0,1.211-0.186,1.604-0.557c0.393-0.37,0.588-0.894,0.588-1.569v-1.897v-0.587v-3.533v-0.294v-2.224v-2.191v-3.826V233.465z"
		/>
	<path d="M281.902,240.072c0,0.392-0.049,0.751-0.148,1.079c-0.098,0.326-0.146,0.708-0.146,1.145
		c-0.152,0.371-0.344,0.72-0.572,1.046c-0.229,0.327-0.486,0.709-0.77,1.145c0.283,0.24,0.541,0.562,0.77,0.965
		c0.229,0.403,0.42,0.823,0.572,1.259c0,0.241,0.049,0.545,0.146,0.916c0.1,0.372,0.148,0.698,0.148,0.981v2.126v4.415h-4.416
		v-0.295v-4.12v-2.126c0-0.566-0.189-1.023-0.572-1.373c-0.381-0.349-0.932-0.524-1.65-0.524h-1.896v1.897v2.126v4.12v0.295h-4.318
		v-4.415v-2.126v-1.897v-4.414v-2.224v-2.191v-4.416h4.318h1.896c0.436,0,0.854,0.061,1.258,0.181s0.725,0.256,0.965,0.409
		c1.941,0.567,3.314,1.843,4.121,3.826c0,0.284,0.049,0.61,0.146,0.981C281.854,239.232,281.902,239.636,281.902,240.072z
		 M276.914,241.593c0.383-0.469,0.572-0.976,0.572-1.521c0-0.567-0.189-1.074-0.572-1.521c-0.381-0.447-0.932-0.671-1.65-0.671
		h-1.896v2.191v2.224h1.896C275.982,242.296,276.533,242.062,276.914,241.593z"/>
</g>
<g>
	<path fill="#FFFFFF" d="M211.852,272.984h4.415v4.415v2.191v2.224v4.415v1.896c0,0.392-0.049,0.785-0.147,1.177
		c-0.098,0.393-0.147,0.709-0.147,0.948c-0.437,0.96-0.993,1.788-1.668,2.485c-0.676,0.698-1.494,1.243-2.453,1.636
		c-0.306,0-0.644,0.049-1.014,0.147c-0.371,0.098-0.774,0.146-1.21,0.146c-0.283,0-0.6-0.049-0.948-0.146
		c-0.349-0.099-0.665-0.147-0.949-0.147c-0.981-0.393-1.842-0.938-2.583-1.636c-0.742-0.697-1.254-1.525-1.537-2.485
		c-0.152-0.239-0.24-0.556-0.261-0.948c-0.022-0.392-0.033-0.785-0.033-1.177v-1.896h0.294h4.121v1.896
		c0,0.676,0.186,1.199,0.556,1.569c0.371,0.371,0.818,0.556,1.341,0.556c0.675,0,1.215-0.185,1.619-0.556
		c0.403-0.37,0.605-0.894,0.605-1.569v-1.896v-0.589v-3.532v-0.294v-2.224v-2.191v-3.826V272.984z"/>
	<path fill="#FFFFFF" d="M228.269,272.984h4.416v4.415h-0.295h-4.121h-2.191h-1.93v2.191v2.224h1.93h2.191v0.294v3.532v0.589h-2.191
		h-1.93v1.896v2.125h1.93h2.191h4.121h0.295v4.415h-4.416h-2.191h-1.93h-4.415v-4.415v-2.125v-1.896v-4.415v-2.224v-2.191v-4.415
		h4.415h1.93H228.269z"/>
	<path fill="#FFFFFF" d="M249.198,279.591c0,0.392-0.048,0.752-0.146,1.079s-0.147,0.708-0.147,1.145
		c-0.152,0.371-0.343,0.72-0.573,1.047c-0.229,0.326-0.485,0.708-0.768,1.145c0.283,0.24,0.54,0.562,0.768,0.964
		c0.229,0.404,0.42,0.823,0.573,1.26c0,0.24,0.049,0.545,0.147,0.916c0.098,0.37,0.146,0.697,0.146,0.98v2.125v4.415h-4.415v-0.294
		v-4.121v-2.125c0-0.566-0.191-1.024-0.572-1.373c-0.382-0.349-0.932-0.523-1.652-0.523h-1.896v1.896v2.125v4.121v0.294h-4.317
		v-4.415v-2.125v-1.896v-4.415v-2.224v-2.191v-4.415h4.317h1.896c0.436,0,0.855,0.06,1.259,0.18c0.403,0.12,0.725,0.257,0.965,0.409
		c1.94,0.567,3.313,1.843,4.121,3.826c0,0.283,0.049,0.61,0.147,0.981C249.15,278.751,249.198,279.155,249.198,279.591z
		 M244.211,281.111c0.381-0.469,0.572-0.976,0.572-1.521c0-0.566-0.191-1.073-0.572-1.521c-0.382-0.445-0.932-0.67-1.652-0.67
		h-1.896v2.191v2.224h1.896C243.279,281.814,243.83,281.58,244.211,281.111z"/>
	<path fill="#FFFFFF" d="M261.168,273.573c0.959,0.283,1.771,0.748,2.436,1.39c0.666,0.644,1.195,1.456,1.586,2.437
		c0,0.283,0.045,0.61,0.133,0.981c0.086,0.37,0.131,0.774,0.131,1.21v2.224h-0.264h-4.021v-2.224c0-0.566-0.201-1.073-0.605-1.521
		c-0.402-0.445-0.943-0.67-1.619-0.67c-0.566,0-1.029,0.225-1.389,0.67c-0.359,0.448-0.539,0.955-0.539,1.521
		c0,0.545,0.18,1.052,0.539,1.521s0.822,0.703,1.389,0.703c0.393,0,0.785,0.011,1.178,0.032c0.393,0.022,0.742,0.109,1.047,0.262
		c0.523,0.088,1.002,0.316,1.439,0.688c0.436,0.37,0.85,0.773,1.242,1.21c0.283,0.24,0.551,0.562,0.801,0.964
		c0.25,0.404,0.432,0.823,0.539,1.26c0,0.24,0.045,0.545,0.133,0.916c0.086,0.37,0.131,0.697,0.131,0.98
		c0,0.392-0.045,0.785-0.131,1.177c-0.088,0.393-0.133,0.709-0.133,0.948c-0.391,0.96-0.92,1.788-1.586,2.485
		c-0.664,0.698-1.477,1.243-2.436,1.636c-0.305,0-0.654,0.049-1.047,0.147c-0.393,0.098-0.785,0.146-1.178,0.146
		c-0.283,0-0.615-0.049-0.996-0.146c-0.383-0.099-0.693-0.147-0.932-0.147c-0.961-0.393-1.827-0.938-2.601-1.636
		c-0.774-0.697-1.28-1.525-1.521-2.485c-0.131-0.239-0.207-0.556-0.229-0.948c-0.021-0.392-0.032-0.785-0.032-1.177v-1.896h0.262
		h4.122v1.896c0,0.676,0.18,1.199,0.539,1.569c0.359,0.371,0.822,0.556,1.389,0.556c0.676,0,1.217-0.185,1.619-0.556
		c0.404-0.37,0.605-0.894,0.605-1.569c0-0.566-0.201-1.024-0.605-1.373c-0.402-0.349-0.943-0.523-1.619-0.523
		c-0.283,0-0.615-0.061-0.996-0.181c-0.383-0.119-0.693-0.256-0.932-0.408c-0.569-0.152-1.064-0.365-1.489-0.639
		c-0.426-0.271-0.855-0.604-1.292-0.996c-0.284-0.437-0.539-0.818-0.769-1.145c-0.229-0.327-0.42-0.676-0.572-1.047
		c-0.131-0.437-0.207-0.817-0.229-1.145c-0.021-0.327-0.032-0.688-0.032-1.079c0-0.436,0.011-0.84,0.032-1.21
		c0.022-0.371,0.099-0.698,0.229-0.981c0.24-0.98,0.746-1.793,1.521-2.437c0.774-0.642,1.64-1.106,2.601-1.39
		c0.238-0.152,0.549-0.289,0.932-0.409c0.381-0.12,0.713-0.18,0.996-0.18c0.393,0,0.785,0.06,1.178,0.18
		S260.863,273.421,261.168,273.573z"/>
	<path fill="#FFFFFF" d="M277.322,272.984h4.416v4.415h-0.295h-4.121h-2.189h-1.93v2.191v2.224h1.93h2.189v0.294v3.532v0.589h-2.189
		h-1.93v1.896v2.125h1.93h2.189h4.121h0.295v4.415h-4.416h-2.189h-1.93h-4.416v-4.415v-2.125v-1.896v-4.415v-2.224v-2.191v-4.415
		h4.416h1.93H277.322z"/>
	<path fill="#FFFFFF" d="M293.674,272.984h4.318l-1.047,3.073l-0.588,1.342l-1.93,4.415v0.457l-0.754,1.734v1.635v0.589v1.896v2.125
		v4.121v0.294h-2.189h-2.225v-0.294v-4.121v-2.125v-1.896v-0.589v-1.635l-0.557-1.734l-0.293-0.457l-1.637-4.415l-0.588-1.342
		l-1.047-3.073h4.121l0.295,0.295l1.635,4.12l0.295,1.047l0.457-1.047l1.732-4.12V272.984z"/>
</g>
</svg>
